<svg xmlns="http://www.w3.org/2000/svg" width="427.476" height="356.57" viewBox="0 0 427.476 356.57">
  <g id="logo" opacity="0.049">
    <g id="Group_3" data-name="Group 3" transform="translate(0 0)">
      <circle id="XMLID_5_" cx="45.145" cy="45.145" r="45.145" transform="translate(168.593)" fill="#fff"/>
      <path id="XMLID_4_" d="M10.5,68.366C141.6,106.624,211.74,173.7,214.545,272.411c7.907-117.836-39.789-169.868-110.185-195.374,44.635.255,79.578,18.619,103.808,56.113C217.351,25.516,73.5,23.221,10.5,68.366Z" transform="translate(-4.124 44.88)" fill="#fff" fill-rule="evenodd"/>
      <path id="XMLID_3_" d="M220.462,265.674C198.272,124.372,136.294,77.952,8,70.3v77.282Q145.348,139.931,220.462,265.674Z" transform="translate(-8 90.896)" fill="#fff" fill-rule="evenodd"/>
      <path id="XMLID_2_" d="M297.666,68.357C166.566,106.615,96.426,173.7,93.62,272.4,85.713,154.566,133.409,102.535,203.8,77.029c-44.635.51-79.833,18.619-104.063,56.368C90.814,25.507,234.667,23.212,297.666,68.357Z" transform="translate(123.433 44.888)" fill="#fff" fill-rule="evenodd"/>
      <path id="XMLID_1_" d="M92.3,265.674C114.49,124.372,176.214,77.952,304.762,70.3v77.282Q167.414,139.931,92.3,265.674Z" transform="translate(122.713 90.896)" fill="#fff" fill-rule="evenodd"/>
    </g>
  </g>
</svg>
