<?xml version="1.0" encoding="utf-8"?>
<!-- Generator: Adobe Illustrator 19.0.0, SVG Export Plug-In . SVG Version: 6.00 Build 0)  -->
<svg version="1.1" id="Layer_1" xmlns="http://www.w3.org/2000/svg" xmlns:xlink="http://www.w3.org/1999/xlink" x="0px" y="0px"
	 viewBox="-91 218.4 427.5 356.6" style="enable-background:new -91 218.4 427.5 356.6;" xml:space="preserve">
<style type="text/css">
	.st0{opacity:4.900000e-002;}
	.st1{fill:#FFFFFF;}
</style>
<g id="logo" class="st0">
	<g id="Group_3" transform="translate(0 0)">
		<circle id="XMLID_5_" class="st1" cx="33.4" cy="270" r="57.4"/>
		<path id="XMLID_4_" class="st1" d="M-135,490.6c165-54.2,286.8-34.4,360.8,67.1c-76.5-129.2-164-149.4-256.1-125.5
			c47-31.9,96.8-37.8,149.2-15.9C51,296.8-101.4,398-135,490.6z"/>
		<path id="XMLID_3_" class="st1" d="M256.2,597.4c-125-132.2-223.3-136.2-363.3-51.9l55.6,81C40.8,555.2,143.3,545.5,256.2,597.4z"
			/>
		<path id="XMLID_2_" class="st1" d="M299.8,192.1c-109.9,134.5-135.1,255.3-67.1,360.8c-93.1-117.8-80.5-206.7-25.1-284.1
			c-46.4,32.7-70.3,77-68.5,134C52.1,296.1,201.2,190.2,299.8,192.1z"/>
		<path id="XMLID_1_" class="st1" d="M258.8,595.5c-78.4-164.1-47.1-257.2,82.1-357.7l55.6,81C296.9,379.4,251,471.6,258.8,595.5z"
			/>
	</g>
</g>
</svg>
