<svg id="timetable" xmlns="http://www.w3.org/2000/svg" width="54.973" height="54.973" viewBox="0 0 54.973 54.973">
  <path id="Path_44" data-name="Path 44" d="M51.752,31.379V4.939a1.61,1.61,0,0,0-1.611-1.611h-8.16V1.611a1.611,1.611,0,0,0-3.221,0V3.328H32.318V1.611a1.611,1.611,0,0,0-3.221,0V3.328H22.655V1.611a1.611,1.611,0,0,0-3.221,0V3.328H12.992V1.611a1.611,1.611,0,1,0-3.221,0V3.328H1.611A1.61,1.61,0,0,0,0,4.939V46.92a1.61,1.61,0,0,0,1.611,1.611H28.432a14.489,14.489,0,1,0,23.32-17.152ZM9.771,6.55V8.16a1.611,1.611,0,1,0,3.221,0V6.55h6.442V8.16a1.611,1.611,0,0,0,3.221,0V6.55H29.1V8.16a1.611,1.611,0,1,0,3.221,0V6.55H38.76V8.16a1.611,1.611,0,0,0,3.221,0V6.55h6.55v6.442H3.221V6.55ZM3.221,45.31v-29.1h45.31V28.432A14.478,14.478,0,0,0,28.318,32.6a1.6,1.6,0,0,0-.724-.173H24.373a1.611,1.611,0,0,0,0,3.221h2.44a14.374,14.374,0,0,0-.739,3.221h-1.7a1.611,1.611,0,1,0,0,3.221h1.7a14.352,14.352,0,0,0,.739,3.221Zm37.257,6.442A11.274,11.274,0,1,1,51.752,40.478,11.286,11.286,0,0,1,40.478,51.752Zm0,0" fill="#3578e5"/>
  <path id="Path_45" data-name="Path 45" d="M370.053,308.442h-4.832v-4.832a1.611,1.611,0,1,0-3.221,0v6.442a1.61,1.61,0,0,0,1.611,1.611h6.442a1.611,1.611,0,0,0,0-3.221Zm0,0" transform="translate(-323.132 -269.575)" fill="#3578e5"/>
  <path id="Path_46" data-name="Path 46" d="M95.832,182H92.611a1.611,1.611,0,1,0,0,3.221h3.221a1.611,1.611,0,0,0,0-3.221Zm0,0" transform="translate(-81.229 -162.459)" fill="#3578e5"/>
  <path id="Path_47" data-name="Path 47" d="M95.832,242H92.611a1.611,1.611,0,1,0,0,3.221h3.221a1.611,1.611,0,1,0,0-3.221Zm0,0" transform="translate(-81.229 -216.017)" fill="#3578e5"/>
  <path id="Path_48" data-name="Path 48" d="M95.832,302H92.611a1.611,1.611,0,1,0,0,3.221h3.221a1.611,1.611,0,0,0,0-3.221Zm0,0" transform="translate(-81.229 -269.575)" fill="#3578e5"/>
  <path id="Path_49" data-name="Path 49" d="M213.611,185.221h3.221a1.611,1.611,0,0,0,0-3.221h-3.221a1.611,1.611,0,0,0,0,3.221Zm0,0" transform="translate(-189.238 -162.459)" fill="#3578e5"/>
  <path id="Path_50" data-name="Path 50" d="M213.611,245.221h3.221a1.611,1.611,0,0,0,0-3.221h-3.221a1.611,1.611,0,0,0,0,3.221Zm0,0" transform="translate(-189.238 -216.017)" fill="#3578e5"/>
  <path id="Path_51" data-name="Path 51" d="M95.832,362H92.611a1.611,1.611,0,0,0,0,3.221h3.221a1.611,1.611,0,0,0,0-3.221Zm0,0" transform="translate(-81.229 -323.132)" fill="#3578e5"/>
  <path id="Path_52" data-name="Path 52" d="M333.611,185.221h3.221a1.611,1.611,0,1,0,0-3.221h-3.221a1.611,1.611,0,0,0,0,3.221Zm0,0" transform="translate(-296.353 -162.459)" fill="#3578e5"/>
</svg>
