<svg xmlns="http://www.w3.org/2000/svg" width="17.019" height="17.019" viewBox="0 0 17.019 17.019">
  <g id="calendar_2_" data-name="calendar(2)" transform="translate(0 0)">
    <g id="Group_246" data-name="Group 246" transform="translate(0)">
      <g id="Group_245" data-name="Group 245">
        <path id="Path_106" data-name="Path 106" d="M15.024,1.33h-.8V0H12.9V1.33H4.122V0H2.792V1.33h-.8A2,2,0,0,0,0,3.324v11.7a2,2,0,0,0,1.994,1.994h13.03a2,2,0,0,0,1.994-1.994V3.324A2,2,0,0,0,15.024,1.33Zm.665,13.695a.666.666,0,0,1-.665.665H1.994a.666.666,0,0,1-.665-.665V6.249h14.36Zm0-10.1H1.33v-1.6a.666.666,0,0,1,.665-.665h.8v1.33h1.33V2.659H12.9v1.33h1.33V2.659h.8a.666.666,0,0,1,.665.665Z" transform="translate(0)"/>
      </g>
    </g>
    <g id="Group_248" data-name="Group 248" transform="translate(2.526 7.645)">
      <g id="Group_247" data-name="Group 247">
        <rect id="Rectangle_197" data-name="Rectangle 197" width="1.33" height="1.33"/>
      </g>
    </g>
    <g id="Group_250" data-name="Group 250" transform="translate(5.185 7.645)">
      <g id="Group_249" data-name="Group 249">
        <rect id="Rectangle_198" data-name="Rectangle 198" width="1.33" height="1.33"/>
      </g>
    </g>
    <g id="Group_252" data-name="Group 252" transform="translate(7.845 7.645)">
      <g id="Group_251" data-name="Group 251">
        <rect id="Rectangle_199" data-name="Rectangle 199" width="1.33" height="1.33"/>
      </g>
    </g>
    <g id="Group_254" data-name="Group 254" transform="translate(10.504 7.645)">
      <g id="Group_253" data-name="Group 253">
        <rect id="Rectangle_200" data-name="Rectangle 200" width="1.33" height="1.33"/>
      </g>
    </g>
    <g id="Group_256" data-name="Group 256" transform="translate(13.163 7.645)">
      <g id="Group_255" data-name="Group 255">
        <rect id="Rectangle_201" data-name="Rectangle 201" width="1.33" height="1.33"/>
      </g>
    </g>
    <g id="Group_258" data-name="Group 258" transform="translate(2.526 10.304)">
      <g id="Group_257" data-name="Group 257">
        <rect id="Rectangle_202" data-name="Rectangle 202" width="1.33" height="1.33"/>
      </g>
    </g>
    <g id="Group_260" data-name="Group 260" transform="translate(5.185 10.304)">
      <g id="Group_259" data-name="Group 259">
        <rect id="Rectangle_203" data-name="Rectangle 203" width="1.33" height="1.33"/>
      </g>
    </g>
    <g id="Group_262" data-name="Group 262" transform="translate(7.845 10.304)">
      <g id="Group_261" data-name="Group 261">
        <rect id="Rectangle_204" data-name="Rectangle 204" width="1.33" height="1.33"/>
      </g>
    </g>
    <g id="Group_264" data-name="Group 264" transform="translate(10.504 10.304)">
      <g id="Group_263" data-name="Group 263">
        <rect id="Rectangle_205" data-name="Rectangle 205" width="1.33" height="1.33"/>
      </g>
    </g>
    <g id="Group_266" data-name="Group 266" transform="translate(2.526 12.964)">
      <g id="Group_265" data-name="Group 265">
        <rect id="Rectangle_206" data-name="Rectangle 206" width="1.33" height="1.33"/>
      </g>
    </g>
    <g id="Group_268" data-name="Group 268" transform="translate(5.185 12.964)">
      <g id="Group_267" data-name="Group 267">
        <rect id="Rectangle_207" data-name="Rectangle 207" width="1.33" height="1.33"/>
      </g>
    </g>
    <g id="Group_270" data-name="Group 270" transform="translate(7.845 12.964)">
      <g id="Group_269" data-name="Group 269">
        <rect id="Rectangle_208" data-name="Rectangle 208" width="1.33" height="1.33"/>
      </g>
    </g>
    <g id="Group_272" data-name="Group 272" transform="translate(10.504 12.964)">
      <g id="Group_271" data-name="Group 271">
        <rect id="Rectangle_209" data-name="Rectangle 209" width="1.33" height="1.33"/>
      </g>
    </g>
    <g id="Group_274" data-name="Group 274" transform="translate(13.163 10.304)">
      <g id="Group_273" data-name="Group 273">
        <rect id="Rectangle_210" data-name="Rectangle 210" width="1.33" height="1.33"/>
      </g>
    </g>
  </g>
</svg>
