<svg xmlns="http://www.w3.org/2000/svg" width="34.971" height="34.282" viewBox="0 0 34.971 34.282">
  <path id="clean-tooth" d="M34.231,7.528,28.959,6.009,27.441.738a1.025,1.025,0,0,0-1.969,0L24.113,5.454a7.038,7.038,0,0,0-8.818-1.1,3.762,3.762,0,0,1-3.914,0C4.992.479-2.288,7.73.685,14.99a15.727,15.727,0,0,1,1.172,6.889A13.526,13.526,0,0,0,7.581,34.113c.336.22.462.168,2.228.149a1.024,1.024,0,0,0,1.013-1.025V25.916a2.547,2.547,0,0,1,2.435-2.575,2.572,2.572,0,0,1,2.537,2.635v7.141a1.024,1.024,0,0,0,1.025,1.025c1.994,0,2.1.053,2.443-.18A13.575,13.575,0,0,0,24.769,22a15.842,15.842,0,0,1,.721-5.663,1.025,1.025,0,0,0,1.951-.053l1.519-5.272L34.231,9.5A1.025,1.025,0,0,0,34.231,7.528ZM22.723,22.114a11.58,11.58,0,0,1-4.369,9.979h-.51V25.976a4.536,4.536,0,1,0-9.069-.06v6.307l-.323,0A11.639,11.639,0,0,1,3.9,22.007a17.786,17.786,0,0,0-1.32-7.794C.37,8.815,5.6,3.245,10.318,6.11a5.805,5.805,0,0,0,6.041,0,4.918,4.918,0,0,1,5.861.4L18.682,7.528a1.026,1.026,0,0,0,0,1.969l5.272,1.519.541,1.879a7.187,7.187,0,0,1-.426,1.382A17.8,17.8,0,0,0,22.723,22.114ZM27.848,9.2a1.024,1.024,0,0,0-.7.7l-.691,2.4-.691-2.4a1.025,1.025,0,0,0-.7-.7l-2.4-.691,2.4-.691a1.024,1.024,0,0,0,.7-.7l.691-2.4.691,2.4a1.025,1.025,0,0,0,.7.7l2.4.691Zm0,0" transform="translate(0.001 0.001)" fill="#3578e5"/>
</svg>
