<svg xmlns="http://www.w3.org/2000/svg" width="17.648" height="17.647" viewBox="0 0 17.648 17.647">
  <g id="close" transform="translate(-0.146 -0.147)" fill="#1b1d20" stroke-linejoin="round">
    <path d="M 16.04222106933594 17.50152778625488 L 15.68867015838623 17.14796829223633 L 8.970770835876465 10.43006801605225 L 2.252870559692383 17.14796829223633 L 1.899320602416992 17.50152778625488 L 1.545770645141602 17.14796829223633 L 0.7935106158256531 16.39570808410645 L 0.4399505853652954 16.04215812683105 L 0.7935106158256531 15.68860816955566 L 7.511384010314941 8.970734596252441 L 0.7924705743789673 2.252837896347046 L 0.4388705790042877 1.899287939071655 L 0.7924506068229675 1.545707941055298 L 1.544710636138916 0.7934479117393494 L 1.89823055267334 0.4399178922176361 L 2.251790523529053 0.7934178709983826 L 8.970748901367188 7.511369228363037 L 15.68867015838623 0.7934479117393494 L 16.04222106933594 0.4398878812789917 L 16.39577102661133 0.7934479117393494 L 17.14803123474121 1.545707941055298 L 17.50159072875977 1.899257898330688 L 17.14803123474121 2.252807855606079 L 10.43013095855713 8.970707893371582 L 17.14803123474121 15.68860816955566 L 17.50159072875977 16.04215812683105 L 17.14803123474121 16.39570808410645 L 16.39577102661133 17.14796829223633 L 16.04222106933594 17.50152778625488 Z" stroke="none"/>
    <path d="M 16.04222106933594 16.79441833496094 L 16.79448127746582 16.04215812683105 L 9.723031044006348 8.970707893371582 L 16.79448127746582 1.899257898330688 L 16.04222106933594 1.146997928619385 L 8.970770835876465 8.218447685241699 L 1.898260593414307 1.146997928619385 L 1.146000623703003 1.899257898330688 L 8.217990875244141 8.970188140869141 L 8.218510627746582 8.970707893371582 L 1.147060632705688 16.04215812683105 L 1.899320602416992 16.79441833496094 L 8.970770835876465 9.722968101501465 L 16.04222106933594 16.79441833496094 M 16.04222106933594 17.79441833496094 C 15.78629779815674 17.79441833496094 15.53037548065186 17.6967887878418 15.33511066436768 17.50152778625488 L 8.970770835876465 11.13718795776367 L 2.606430530548096 17.50152778625488 C 2.411165475845337 17.6967887878418 2.155243158340454 17.79441833496094 1.899320602416992 17.79441833496094 C 1.64339804649353 17.79441833496094 1.387475609779358 17.6967887878418 1.192210555076599 17.50152778625488 L 0.4399505853652954 16.749267578125 C 0.04943059384822845 16.35873794555664 0.04943059384822845 15.72557830810547 0.4399505853652954 15.33504772186279 L 6.804238319396973 8.970760345458984 L 0.4389505982398987 2.606417894363403 C 0.2513906061649323 2.418887853622437 0.1460105925798416 2.164527893066406 0.1460005939006805 1.899297952651978 C 0.1459905952215195 1.634067893028259 0.2513505816459656 1.379697918891907 0.4388906061649323 1.192147850990295 L 1.191150546073914 0.4398878812789917 C 1.38640558719635 0.2446378916501999 1.642347455024719 0.1469991505146027 1.898257493972778 0.1469991505146027 C 2.154167413711548 0.1469991505146027 2.410045623779297 0.2446028888225555 2.605310678482056 0.4398379027843475 L 8.970712661743164 6.804286003112793 L 15.33511066436768 0.4398878812789917 C 15.53037548065186 0.2446278929710388 15.78629779815674 0.1469978988170624 16.04222106933594 0.1469978988170624 C 16.29814338684082 0.1469978988170624 16.5540657043457 0.2446278929710388 16.74933052062988 0.4398878812789917 L 17.50159072875977 1.192147850990295 C 17.89211082458496 1.582677841186523 17.89211082458496 2.215837955474854 17.50159072875977 2.606367826461792 L 11.13725090026855 8.970707893371582 L 17.50159072875977 15.33504772186279 C 17.89211082458496 15.72557830810547 17.89211082458496 16.35873794555664 17.50159072875977 16.749267578125 L 16.74933052062988 17.50152778625488 C 16.5540657043457 17.6967887878418 16.29814338684082 17.79441833496094 16.04222106933594 17.79441833496094 Z" stroke="none" fill="#1b1d20"/>
  </g>
</svg>
