<svg id="exclamation" xmlns="http://www.w3.org/2000/svg" width="18.118" height="18.118" viewBox="0 0 18.118 18.118">
  <g id="Group_12813" data-name="Group 12813">
    <path id="Path_147" data-name="Path 147" d="M9.058,0a9.059,9.059,0,1,0,9.06,9.059A9.069,9.069,0,0,0,9.058,0Zm0,16.986a7.927,7.927,0,1,1,7.927-7.927A7.936,7.936,0,0,1,9.058,16.986Z" fill="#e2574c"/>
    <circle id="Ellipse_33" data-name="Ellipse 33" cx="0.637" cy="0.637" r="0.637" transform="translate(8.575 13.99)" fill="#e2574c"/>
    <path id="Path_148" data-name="Path 148" d="M31.048,22.028a.566.566,0,0,0,.566-.566V13.3a.566.566,0,0,0-1.132,0v8.16A.566.566,0,0,0,31.048,22.028Z" transform="translate(-21.837 -9.124)" fill="#e2574c"/>
  </g>
</svg>
