<svg xmlns="http://www.w3.org/2000/svg" width="8.805" height="8.805" viewBox="0 0 8.805 8.805">
  <path id="icons8-external-link" d="M11.3,2.99a.489.489,0,0,0-.054,0H8.867a.489.489,0,1,0,0,.978h1.264L7.767,6.354a.489.489,0,1,0,.691.691l2.364-2.382V5.928a.489.489,0,1,0,.978,0V3.546a.489.489,0,0,0-.5-.556Zm-7.324,0A.985.985,0,0,0,3,3.973v6.845a.985.985,0,0,0,.978.978h6.845a.985.985,0,0,0,.978-.978V7.884a.489.489,0,1,0-.978,0v2.933H3.978V3.973H6.911a.489.489,0,1,0,0-.978Z" transform="translate(-3 -2.99)" fill="#3578e5"/>
</svg>
