<svg xmlns="http://www.w3.org/2000/svg" width="140.932" height="28.973" viewBox="0 0 140.932 28.973">
  <g id="Group_12682" data-name="Group 12682" transform="translate(-130.383 -71.95)">
    <path id="Path_1" data-name="Path 1" d="M242.923,73.85l5.966-1v9.221c.808-.17,1.574-.386,2.356-.485a12.748,12.748,0,0,1,5.7.366A4.335,4.335,0,0,1,260,85.622a19.883,19.883,0,0,1,.251,3.016c.018,1.994.015,3.992-.077,5.984a6.213,6.213,0,0,1-2.241,4.93A7.787,7.787,0,0,1,254.325,101a27.2,27.2,0,0,1-7.833.024c-1.072-.13-2.14-.3-3.211-.433-.294-.035-.4-.156-.386-.436.009-.184,0-.369,0-.554q0-12.578,0-25.156C242.9,74.26,242.912,74.076,242.923,73.85Zm5.975,22.4a10.853,10.853,0,0,0,3.4-.026,2.028,2.028,0,0,0,1.854-2.117c.082-1.85.1-3.7.059-5.554a1.843,1.843,0,0,0-1.825-2.025,5.351,5.351,0,0,0-3.287.668.523.523,0,0,0-.2.4c-.014,1.668-.009,3.337-.009,5Z" transform="translate(-46.231 -0.371)" fill="#3e6dc1" fill-rule="evenodd"/>
    <path id="Path_2" data-name="Path 2" d="M357.159,101.038h-1.1c-1.639,0-3.28-.012-4.919.008a.741.741,0,0,1-.74-.419c-1.608-2.707-3.234-5.4-4.853-8.1-.045-.072-.09-.142-.2-.313v8.8c-.193.009-.342.023-.492.023-1.683,0-3.365-.013-5.049.012-.4.005-.512-.108-.508-.5.017-1.9.008-3.794.008-5.69V74.449c0-.591,0-.579.6-.677,1.641-.268,3.281-.549,4.921-.823.138-.023.281-.026.474-.043V90.012l.1.031c.148-.229.3-.454.449-.684q2.273-3.595,4.538-7.193a.8.8,0,0,1,.776-.444c1.769.028,3.537.01,5.306.01h.689c-.1.2-.165.331-.242.453q-2.7,4.263-5.4,8.518a.7.7,0,0,0-.025.868c1.842,3.03,3.658,6.077,5.48,9.119C357.022,100.774,357.065,100.861,357.159,101.038Z" transform="translate(-85.846 -0.393)" fill="#3e6dc1" fill-rule="evenodd"/>
    <path id="Path_3" data-name="Path 3" d="M227.428,101.645c.009.15.025.274.025.4,0,1.355-.005,2.71.007,4.063,0,.288-.062.408-.379.479a31.4,31.4,0,0,1-8.192.643,9.754,9.754,0,0,1-3.753-.892,6.547,6.547,0,0,1-3.8-5.082,16.416,16.416,0,0,1-.184-2.548c-.026-1.482-.052-2.967.01-4.447a6.979,6.979,0,0,1,1.644-4.479,6.479,6.479,0,0,1,3.631-2.019,13.352,13.352,0,0,1,7.161.268,5.786,5.786,0,0,1,4.173,5.079c.235,1.967.191,3.966.273,6.011h-.627c-3.265,0-6.531.008-9.795-.01-.384,0-.515.115-.476.481.032.3.012.6.067.894A1.8,1.8,0,0,0,219,102.132a27.264,27.264,0,0,0,3.71.042c1.487-.1,2.963-.347,4.444-.529A2.455,2.455,0,0,1,227.428,101.645Zm-7.863-6.589h1.2c1.3,0,1.3,0,1.163-1.295a1.724,1.724,0,0,0-1.448-1.674,5.7,5.7,0,0,0-1.815-.02,1.579,1.579,0,0,0-1.4,1.317c-.085.428-.08.873-.122,1.31-.027.28.1.372.372.367C218.2,95.046,218.881,95.056,219.565,95.056Z" transform="translate(-33.175 -6.348)" fill="#3e6dc1" fill-rule="evenodd"/>
    <path id="Path_4" data-name="Path 4" d="M324.6,97.305c-.08,1.344-.07,2.648-.25,3.926a6.3,6.3,0,0,1-5.155,5.609,13.36,13.36,0,0,1-7.291-.189,6.246,6.246,0,0,1-4.525-5.316,19.451,19.451,0,0,1-.175-2.978c-.011-1.453-.042-2.913.085-4.356a6.5,6.5,0,0,1,5.6-6.266,13.343,13.343,0,0,1,7,.286,6.181,6.181,0,0,1,4.438,5.242C324.539,94.607,324.518,95.986,324.6,97.305Zm-6.1.045h-.008c0-.943.017-1.883,0-2.823a2.013,2.013,0,0,0-1.453-1.906,3.94,3.94,0,0,0-2.15-.057,1.987,1.987,0,0,0-1.646,1.882q-.045,2.885,0,5.774a1.889,1.889,0,0,0,1.492,1.858,5.438,5.438,0,0,0,1.645.14,2.126,2.126,0,0,0,2.124-2.3C318.506,99.06,318.5,98.205,318.5,97.351Z" transform="translate(-72.651 -6.35)" fill="#3e6dc1" fill-rule="evenodd"/>
    <path id="Path_5" data-name="Path 5" d="M292.487,97.529c-.1,1.24-.1,2.688-.351,4.1a6.261,6.261,0,0,1-5.2,5.268,13.578,13.578,0,0,1-6.882-.14,6.332,6.332,0,0,1-4.8-5.315,12.338,12.338,0,0,1-.178-2.037c-.024-1.6-.055-3.194.012-4.788a7.017,7.017,0,0,1,2.285-5.291,7.447,7.447,0,0,1,3.783-1.656,13.423,13.423,0,0,1,6.823.444,6.176,6.176,0,0,1,4.235,5.263C292.4,94.676,292.392,96.009,292.487,97.529Zm-11.39-.194h-.029q0,1.283,0,2.567a2.9,2.9,0,0,0,.029.383,1.887,1.887,0,0,0,1.422,1.78,5.446,5.446,0,0,0,1.767.156,2.1,2.1,0,0,0,2.074-2.135q.019-2.738,0-5.475a2.022,2.022,0,0,0-1.519-1.989,3.924,3.924,0,0,0-2.233-.006,1.945,1.945,0,0,0-1.5,1.856C281.068,95.424,281.1,96.379,281.1,97.334Z" transform="translate(-59.442 -6.36)" fill="#3e6dc1" fill-rule="evenodd"/>
    <path id="Path_6" data-name="Path 6" d="M163.256,106.188c-1.133.359-2.212.768-3.324,1.034a7.935,7.935,0,0,1-4.016.006,4.926,4.926,0,0,1-3.677-4.122,7.685,7.685,0,0,1,.028-3.1,4.187,4.187,0,0,1,3.481-3.441,15.754,15.754,0,0,1,2.667-.277c1.2-.045,2.4-.025,3.593,0,.367.007.481-.114.445-.462a7.479,7.479,0,0,1-.027-.9c.029-1.54-.728-1.87-1.94-1.922-1.935-.083-3.876-.067-5.814-.094-.17,0-.338,0-.575,0,.037-.47.064-.9.105-1.333.111-1.133.221-2.266.357-3.4a.428.428,0,0,1,.318-.269c2.495.014,4.99.013,7.483.1a10.049,10.049,0,0,1,2.38.452,4.733,4.733,0,0,1,3.526,4.266,19.776,19.776,0,0,1,.179,2.68c.02,3.779,0,7.559.016,11.338,0,.4-.095.54-.519.532q-2.008-.042-4.021,0c-.4.007-.529-.155-.566-.5C163.333,106.559,163.283,106.337,163.256,106.188Zm-2.595-5.844v.006c-.441,0-.882-.012-1.325,0-.87.028-1.238.427-1.218,1.291a1.347,1.347,0,0,0,1.462,1.509,4.931,4.931,0,0,0,2.649-.676.556.556,0,0,0,.211-.406c.027-.455,0-.911.014-1.367.011-.287-.113-.371-.382-.362C161.6,100.354,161.132,100.343,160.661,100.343Z" transform="translate(-8.922 -6.561)" fill="#3e6dc1" fill-rule="evenodd"/>
    <path id="Path_7" data-name="Path 7" d="M143.779,71.95v3.333c0,.455-.014.913,0,1.368.009.278-.084.377-.367.372q-1.174-.019-2.353,0a3.627,3.627,0,0,0-.8.1,1.01,1.01,0,0,0-.845,1c-.031,1.05-.01,2.1-.01,3.206h4.4c-.076.8-.142,1.548-.218,2.293s-.174,1.5-.234,2.251c-.027.341-.122.5-.51.487-1.152-.028-2.306-.009-3.5-.009v14.255h-5.976c-.015-.193-.042-.4-.042-.6,0-4.379-.006-8.757.008-13.134,0-.4-.081-.548-.512-.528-.793.039-1.59.011-2.44.011v-.507c0-1.284-.007-2.567,0-3.851,0-.717-.085-.648.632-.653.642,0,1.284-.019,1.926,0,.312.011.388-.11.388-.395.006-1.183-.013-2.368.057-3.548A5.586,5.586,0,0,1,135,73.474,4.811,4.811,0,0,1,138,72.144C139.895,72,141.8,72.008,143.779,71.95Z" fill="#3e6dc1" fill-rule="evenodd"/>
    <path id="Path_8" data-name="Path 8" d="M197.95,93.1c-.954-.148-1.836-.3-2.721-.421a13.012,13.012,0,0,0-4.544-.047,1.751,1.751,0,0,0-1.537,1.786q-.057,2.966,0,5.935a1.626,1.626,0,0,0,1.448,1.707,17.041,17.041,0,0,0,3.31.131c1.244-.081,2.476-.341,3.715-.522a2.417,2.417,0,0,1,.288,0,2.368,2.368,0,0,1,.043.325c0,1.383,0,2.766,0,4.149,0,.268-.057.392-.353.458a23.7,23.7,0,0,1-6.735.651,8.7,8.7,0,0,1-5.468-2,6.387,6.387,0,0,1-2.181-4.411,51.772,51.772,0,0,1-.079-6.356,6.75,6.75,0,0,1,3.251-5.742,9.224,9.224,0,0,1,3.876-1.211,22.371,22.371,0,0,1,7.325.612c.137.031.343.2.345.312C197.957,89.976,197.95,91.5,197.95,93.1Z" transform="translate(-21.652 -6.363)" fill="#3e6dc1" fill-rule="evenodd"/>
  </g>
</svg>
