<svg id="Group_12722" data-name="Group 12722" xmlns="http://www.w3.org/2000/svg" width="87.229" height="17.933" viewBox="0 0 87.229 17.933">
  <path id="Path_1" data-name="Path 1" d="M242.912,73.47l3.693-.616v5.707c.5-.105.974-.239,1.458-.3a7.89,7.89,0,0,1,3.53.226,2.683,2.683,0,0,1,1.89,2.269,12.31,12.31,0,0,1,.155,1.866c.011,1.234.009,2.471-.048,3.7a3.845,3.845,0,0,1-1.387,3.051,4.82,4.82,0,0,1-2.234.9,16.834,16.834,0,0,1-4.848.015c-.664-.081-1.324-.188-1.988-.268-.182-.022-.248-.1-.239-.27.006-.114,0-.229,0-.343q0-7.785,0-15.57C242.9,73.724,242.905,73.611,242.912,73.47Zm3.7,13.862a6.718,6.718,0,0,0,2.107-.016,1.255,1.255,0,0,0,1.147-1.31c.051-1.145.065-2.293.036-3.438a1.141,1.141,0,0,0-1.13-1.253,3.312,3.312,0,0,0-2.035.413.324.324,0,0,0-.121.25c-.009,1.032-.005,2.065-.005,3.1Z" transform="translate(-201.87 -72.524)" fill="#3e6dc1" fill-rule="evenodd"/>
  <path id="Path_2" data-name="Path 2" d="M350.354,90.318h-.68c-1.015,0-2.03-.008-3.045.005a.458.458,0,0,1-.458-.259c-1-1.676-2-3.345-3-5.016l-.122-.194V90.3c-.12.005-.212.014-.3.014-1.042,0-2.083-.008-3.125.007-.246,0-.317-.067-.314-.309.01-1.174,0-2.348,0-3.522V73.861c0-.366,0-.358.372-.419,1.015-.166,2.031-.34,3.046-.509.085-.014.174-.016.293-.027V83.493l.061.019c.092-.141.188-.281.278-.423q1.407-2.225,2.809-4.452a.493.493,0,0,1,.48-.275c1.095.017,2.189.006,3.284.006h.426c-.065.122-.1.2-.15.28q-1.669,2.638-3.343,5.272a.433.433,0,0,0-.016.537c1.14,1.876,2.264,3.761,3.392,5.644C350.27,90.155,350.3,90.209,350.354,90.318Z" transform="translate(-263.126 -72.557)" fill="#3e6dc1" fill-rule="evenodd"/>
  <path id="Path_3" data-name="Path 3" d="M221.213,96.216c.006.093.015.17.015.246,0,.839,0,1.678,0,2.515,0,.178-.039.252-.235.3a19.433,19.433,0,0,1-5.07.4,6.037,6.037,0,0,1-2.323-.552,4.052,4.052,0,0,1-2.355-3.146,10.16,10.16,0,0,1-.114-1.577c-.016-.917-.032-1.837.006-2.752a4.32,4.32,0,0,1,1.017-2.773,4.01,4.01,0,0,1,2.248-1.25,8.264,8.264,0,0,1,4.432.166,3.581,3.581,0,0,1,2.583,3.143c.145,1.217.118,2.455.169,3.721H221.2c-2.021,0-4.042,0-6.062-.006-.237,0-.319.071-.295.3.02.185.007.373.042.553A1.115,1.115,0,0,0,216,96.518a16.876,16.876,0,0,0,2.3.026c.921-.061,1.834-.215,2.751-.327A1.517,1.517,0,0,1,221.213,96.216Zm-4.867-4.078h.74c.8,0,.8,0,.72-.8a1.067,1.067,0,0,0-.9-1.036,3.529,3.529,0,0,0-1.123-.012.978.978,0,0,0-.865.815c-.053.265-.05.54-.075.811-.016.174.059.23.23.227C215.5,92.132,215.923,92.138,216.346,92.138Z" transform="translate(-181.681 -81.766)" fill="#3e6dc1" fill-rule="evenodd"/>
  <path id="Path_4" data-name="Path 4" d="M317.965,93.532c-.049.832-.043,1.639-.155,2.43a3.9,3.9,0,0,1-3.191,3.472,8.269,8.269,0,0,1-4.513-.117,3.866,3.866,0,0,1-2.8-3.29,12.043,12.043,0,0,1-.108-1.843c-.007-.9-.026-1.8.053-2.7a4.022,4.022,0,0,1,3.466-3.878,8.259,8.259,0,0,1,4.334.177,3.826,3.826,0,0,1,2.747,3.245C317.928,91.862,317.916,92.715,317.965,93.532Zm-3.776.028h0c0-.583.011-1.165,0-1.747a1.246,1.246,0,0,0-.9-1.18,2.439,2.439,0,0,0-1.331-.035,1.23,1.23,0,0,0-1.019,1.165q-.028,1.786,0,3.574a1.17,1.17,0,0,0,.923,1.15,3.366,3.366,0,0,0,1.018.086,1.316,1.316,0,0,0,1.315-1.424C314.194,94.618,314.19,94.089,314.19,93.56Z" transform="translate(-242.723 -81.769)" fill="#3e6dc1" fill-rule="evenodd"/>
  <path id="Path_5" data-name="Path 5" d="M285.84,93.68c-.061.768-.064,1.664-.217,2.535a3.875,3.875,0,0,1-3.221,3.26,8.4,8.4,0,0,1-4.259-.086,3.919,3.919,0,0,1-2.972-3.29,7.629,7.629,0,0,1-.11-1.26c-.015-.988-.034-1.977.007-2.963a4.343,4.343,0,0,1,1.414-3.275,4.609,4.609,0,0,1,2.341-1.025,8.308,8.308,0,0,1,4.223.275,3.823,3.823,0,0,1,2.621,3.257C285.786,91.915,285.781,92.739,285.84,93.68Zm-7.049-.12h-.018q0,.794,0,1.589a1.8,1.8,0,0,0,.018.237,1.168,1.168,0,0,0,.88,1.1,3.371,3.371,0,0,0,1.093.1,1.3,1.3,0,0,0,1.283-1.322q.012-1.694,0-3.389a1.252,1.252,0,0,0-.94-1.231,2.429,2.429,0,0,0-1.382,0,1.2,1.2,0,0,0-.929,1.149C278.772,92.377,278.791,92.968,278.791,93.56Z" transform="translate(-222.297 -81.785)" fill="#3e6dc1" fill-rule="evenodd"/>
  <path id="Path_6" data-name="Path 6" d="M159,99.226c-.7.222-1.369.475-2.057.64a4.912,4.912,0,0,1-2.486,0,3.049,3.049,0,0,1-2.276-2.552A4.757,4.757,0,0,1,152.2,95.4a2.592,2.592,0,0,1,2.155-2.13,9.752,9.752,0,0,1,1.651-.171c.741-.028,1.483-.016,2.224,0,.227,0,.3-.071.275-.286a4.631,4.631,0,0,1-.017-.556c.018-.953-.451-1.157-1.2-1.189-1.2-.051-2.4-.042-3.6-.058h-.356c.023-.291.039-.558.065-.825.069-.7.137-1.4.221-2.1a.265.265,0,0,1,.2-.167c1.544.009,3.088.008,4.632.061a6.219,6.219,0,0,1,1.473.28A2.929,2.929,0,0,1,162.1,90.9a12.24,12.24,0,0,1,.111,1.659c.012,2.339,0,4.678.01,7.018,0,.249-.059.334-.321.329q-1.243-.026-2.488,0c-.247,0-.327-.1-.35-.312C159.051,99.455,159.02,99.318,159,99.226ZM157.4,95.608v0c-.273,0-.546-.008-.82,0-.539.018-.766.264-.754.8a.834.834,0,0,0,.9.934,3.052,3.052,0,0,0,1.639-.419.344.344,0,0,0,.131-.252c.016-.281,0-.564.009-.846.007-.178-.07-.23-.236-.224C157.98,95.615,157.688,95.608,157.4,95.608Z" transform="translate(-144.178 -82.095)" fill="#3e6dc1" fill-rule="evenodd"/>
  <path id="Path_7" data-name="Path 7" d="M138.674,71.95v2.063c0,.282-.008.565,0,.847.006.172-.052.233-.227.23q-.727-.012-1.456,0a2.245,2.245,0,0,0-.5.064.625.625,0,0,0-.523.617c-.019.65-.006,1.3-.006,1.984h2.724c-.047.5-.088.958-.135,1.419s-.108.928-.145,1.393c-.017.211-.075.307-.315.3-.713-.017-1.427-.006-2.165-.006v8.823h-3.7c-.009-.12-.026-.247-.026-.374,0-2.71,0-5.42.005-8.129,0-.248-.05-.339-.317-.327-.491.024-.984.007-1.51.007v-.314c0-.794,0-1.589,0-2.383,0-.444-.053-.4.391-.4.4,0,.795-.012,1.192,0,.193.007.24-.068.24-.244,0-.732-.008-1.466.035-2.2a3.457,3.457,0,0,1,1-2.432,2.978,2.978,0,0,1,1.852-.823C136.27,71.983,137.451,71.986,138.674,71.95Z" transform="translate(-130.382 -71.95)" fill="#3e6dc1" fill-rule="evenodd"/>
  <path id="Path_8" data-name="Path 8" d="M192.281,90.939c-.591-.092-1.137-.185-1.684-.261a8.054,8.054,0,0,0-2.813-.029,1.084,1.084,0,0,0-.951,1.105q-.035,1.835,0,3.674a1.006,1.006,0,0,0,.9,1.056,10.547,10.547,0,0,0,2.048.081c.77-.05,1.532-.211,2.3-.323a1.493,1.493,0,0,1,.178,0,1.465,1.465,0,0,1,.027.2c0,.856,0,1.712,0,2.568,0,.166-.035.242-.218.284a14.669,14.669,0,0,1-4.169.4,5.384,5.384,0,0,1-3.384-1.235,3.953,3.953,0,0,1-1.35-2.73,32.051,32.051,0,0,1-.049-3.934,4.178,4.178,0,0,1,2.012-3.554,5.709,5.709,0,0,1,2.4-.75,13.846,13.846,0,0,1,4.534.379c.085.019.213.125.213.193C192.286,89.008,192.281,89.95,192.281,90.939Z" transform="translate(-163.862 -81.79)" fill="#3e6dc1" fill-rule="evenodd"/>
</svg>
