<svg xmlns="http://www.w3.org/2000/svg" width="29.239" height="28" viewBox="0 0 29.239 28">
  <g id="calendar" transform="translate(0 -10.846)">
    <path id="Path_131" data-name="Path 131" d="M57.936,10.846h-22.8a1.286,1.286,0,0,0-1.286,1.287v4.278H59.223V12.133A1.287,1.287,0,0,0,57.936,10.846ZM40.378,13.42a.616.616,0,1,1,.616-.616A.616.616,0,0,1,40.378,13.42Zm12.478,0a.616.616,0,1,1,.616-.616A.616.616,0,0,1,52.856,13.42Z" transform="translate(-31.917)" fill="#e6e6e6"/>
    <path id="Path_132" data-name="Path 132" d="M29.211,83.14,27.265,93.288l.795,10.553a1.335,1.335,0,0,1-1.332,1.435H2.511a1.336,1.336,0,0,1-1.332-1.435l.8-10.553L.028,83.14A1.549,1.549,0,0,1,1.549,81.3h26.14A1.549,1.549,0,0,1,29.211,83.14Z" transform="translate(0 -66.431)" fill="#3a5bbc"/>
    <path id="Path_133" data-name="Path 133" d="M46.124,303.214H21.906a1.336,1.336,0,0,1-1.332-1.435l.8-10.553h25.29l.795,10.553A1.335,1.335,0,0,1,46.124,303.214Z" transform="translate(-19.396 -264.368)" fill="#518ef8"/>
    <g id="Group_12684" data-name="Group 12684" transform="translate(6.737 20.148)">
      <path id="Path_134" data-name="Path 134" d="M125.355,185.542a3.7,3.7,0,0,0-7.39,0H119.2a2.466,2.466,0,1,1,2.463,2.361h-1.15v1.232h1.15A2.363,2.363,0,1,1,119.2,191.5h-1.232a3.7,3.7,0,0,0,7.39,0,3.566,3.566,0,0,0-1.628-2.977A3.566,3.566,0,0,0,125.355,185.542Z" transform="translate(-117.965 -181.48)" fill="#fff"/>
      <path id="Path_135" data-name="Path 135" d="M289.289,176.3l.632,1.057,2.435-1.455V186.72h1.232V173.728Z" transform="translate(-279.505 -173.728)" fill="#fff"/>
    </g>
  </g>
</svg>
