<svg xmlns="http://www.w3.org/2000/svg" width="54.973" height="54.973" viewBox="0 0 54.973 54.973">
  <g id="next" transform="translate(0 0)">
    <g id="Group_50" data-name="Group 50" transform="translate(0 0)">
      <g id="Group_49" data-name="Group 49" transform="translate(0)">
        <path id="Path_53" data-name="Path 53" d="M51.28,13.749A27.475,27.475,0,0,0,.948,20.375,27.475,27.475,0,0,0,20.376,54.025a27.623,27.623,0,0,0,7.156.948A27.485,27.485,0,0,0,51.28,13.749Zm-.019,20.108A24.613,24.613,0,0,1,6.171,39.793,24.613,24.613,0,0,1,33.857,3.712a24.614,24.614,0,0,1,17.4,30.145Z" transform="translate(0 0)" fill="#5e6170"/>
      </g>
    </g>
    <g id="Group_52" data-name="Group 52" transform="translate(14.434 16.116)">
      <g id="Group_51" data-name="Group 51">
        <path id="Path_54" data-name="Path 54" d="M153.484,159.089l-14.921-8.615a2.751,2.751,0,0,0-4.127,2.383v17.23a2.745,2.745,0,0,0,4.127,2.383l14.921-8.615a2.751,2.751,0,0,0,0-4.765ZM137.3,169.9V153.048l14.591,8.424Z" transform="translate(-134.436 -150.102)" fill="#5e6170"/>
      </g>
    </g>
    <g id="Group_54" data-name="Group 54" transform="translate(37.678 16.449)">
      <g id="Group_53" data-name="Group 53">
        <path id="Path_55" data-name="Path 55" d="M352.348,153.2a1.431,1.431,0,0,0-1.431,1.431v19.216a1.431,1.431,0,1,0,2.861,0V154.631A1.431,1.431,0,0,0,352.348,153.2Z" transform="translate(-350.917 -153.2)" fill="#5e6170"/>
      </g>
    </g>
  </g>
</svg>
