<?xml version="1.0" encoding="utf-8"?>
<!-- Generator: Adobe Illustrator 19.0.0, SVG Export Plug-In . SVG Version: 6.00 Build 0)  -->
<svg version="1.1" id="Layer_1" xmlns="http://www.w3.org/2000/svg" xmlns:xlink="http://www.w3.org/1999/xlink" x="0px" y="0px"
	 viewBox="9 -13.2 54.9 61.2" style="enable-background:new 9 -13.2 54.9 61.2;" xml:space="preserve">
<style type="text/css">
	.st0{fill:#5E6170;}
</style>
<g id="dentist_1_" transform="translate(-0.011 0)">
	<path id="Path_39" class="st0" d="M27.2,23.1c-0.6,0.1-1,0.5-1.2,1.1L25.8,25c-4.7,1.6-10.5,3.9-12.5,6C10.7,33.5,9.5,41.3,9,45.7
		c-0.1,1.1,0.7,2.1,1.8,2.2c0.1,0,0.1,0,0.2,0h50.8c1.1,0,2-0.9,2-2c0-0.1,0-0.1,0-0.2c-0.5-4.4-1.7-12.2-4.3-14.8
		c-2-2-7.8-4.3-12.5-6l-0.3-0.9c-0.2-0.8-1-1.2-1.8-1c-0.1-0.3-0.2-0.6-0.3-0.8c1.3-1.2,2.3-2.8,2.8-4.6c0.3-1.1,0.5-2.2,0.5-3.4
		c1.5-0.1,2.6-1.2,2.8-2.7l0.6-5.1c0-0.1,0-0.2,0-0.4c0-0.7-0.2-1.3-0.6-1.9c0.8-2.6,2.2-8.7-2.5-13.4c-3.7-3.7-9-4.2-11.9-4.2h0
		c-2.9,0-8.3,0.5-12,4.2C19.8-4.4,21.3,1.7,22,4.3c-0.4,0.5-0.6,1.2-0.6,1.9c0,0.1,0,0.2,0,0.3l0.6,5.1c0.2,1.5,1.3,2.6,2.8,2.7
		c0,1.1,0.2,2.3,0.5,3.4c0.5,1.8,1.4,3.3,2.8,4.6c-0.1,0.3-0.2,0.5-0.3,0.8C27.6,23,27.4,23,27.2,23.1z M36.5,25.6
		c2.4-0.1,4.7-0.7,6.7-2c0.1,0.3,0.2,0.6,0.3,0.9l-1.5,1.9c-3.5,1.6-7.5,1.6-11,0l-1.5-1.9c0.1-0.3,0.2-0.6,0.3-0.9
		C31.8,24.8,34.1,25.5,36.5,25.6z M29.5,27.9L29.5,27.9l3.8,4.7v6l-5.7-12.9l0-0.1L29.5,27.9z M37.8,31.4c-0.2,0.3-0.4,0.6-0.4,1V46
		h-2V32.4c0-0.4-0.1-0.7-0.3-1l-1.7-2.1c2,0.4,4.1,0.4,6.2,0L37.8,31.4z M39.5,32.6l3.8-4.6l0,0l1.9-2.2l0,0.1l-5.7,12.9V32.6z
		 M23.2,36.8c1.1,0,2,0.9,2,2c0,1.1-0.9,2-2,2c-1.1,0-2-0.9-2-2C21.1,37.7,22.1,36.8,23.2,36.8L23.2,36.8z M11,46
		c0.6-5.4,1.9-11.7,3.7-13.6c1.2-1,2.5-1.8,3.9-2.4c-0.1,2.1,0.5,4.2,1.6,5.9c-1.6,1.6-1.6,4.2,0,5.8c1.6,1.6,4.2,1.6,5.8,0
		c1.6-1.6,1.6-4.2,0-5.8c-0.8-0.8-1.8-1.2-2.9-1.2c-0.4,0-0.8,0.1-1.1,0.2c-1.2-1.7-1.6-3.8-1.2-5.9c1.5-0.6,3.3-1.3,5.2-2l6.5,14.6
		c0.2,0.4,0.5,0.7,0.9,0.8V46L11,46z M61.9,46H39.5v-3.5c0.4-0.1,0.7-0.4,0.9-0.8l6.5-14.6c0.8,0.3,1.6,0.6,2.4,0.9
		c0.4,1.2,0.7,2.5,0.8,3.8c-1.4,0.3-2.4,1.5-2.4,3c0,0.3,0,0.5,0.1,0.8c-3.6,2.2-5.4,4.2-5.2,6.1c0.1,1.4,1.2,2.5,3.3,3.3
		c0.5,0.2,1.1,0,1.3-0.6c0.2-0.5,0-1.1-0.6-1.3c0,0,0,0,0,0c-1.2-0.5-1.9-1-2-1.5c-0.1-0.7,1.1-2.3,4.3-4.2c0.5,0.4,1.2,0.6,1.8,0.6
		h1c0.6,0,1.3-0.2,1.8-0.6c3.3,2,4.4,3.5,4.3,4.2c0,0.5-0.7,1.1-2,1.5c-0.5,0.2-0.8,0.8-0.6,1.3c0.2,0.5,0.8,0.8,1.3,0.6
		c0,0,0,0,0.1,0c2.1-0.8,3.2-1.9,3.3-3.3c0.1-1.9-1.6-3.9-5.2-6.1c0.1-0.3,0.1-0.5,0.1-0.8c0-1.5-1.1-2.8-2.7-3
		c-0.1-1-0.3-1.9-0.5-2.8c3.3,1.4,5.6,2.6,6.5,3.5C60,34.2,61.3,40.6,61.9,46z M51.8,35.8h-1c-0.6,0-1-0.5-1-1s0.5-1,1-1h1
		c0.6,0,1,0.5,1,1S52.3,35.8,51.8,35.8L51.8,35.8z M26.9,14.4c0-0.4,0.1-3.9,0.1-4.4c0.6-0.7,1.1-1.4,1.6-2.2c0,0,0,0,0,0
		c0.4,0.4,1,0.4,1.4,0c1.6-1.5,2.7-0.8,2.8-0.7c0.4,0.3,1.1,0.3,1.4-0.2c0.3-0.4,0.3-1.1-0.2-1.4c-1.3-0.9-3.1-0.9-4.4,0.1
		c0.3-0.7,0.5-1.5,0.6-2.2c5,0.7,10-0.2,14.4-2.5c0,0.6,0.1,1.3,0.2,2.1c0,0,0,0.1,0,0.1c0,0,0,0,0,0.1c0.3,1.7,0.6,3.1,0.8,4.4
		c0.2,1.4,0.3,5.7,0.4,6.8C45.7,14.7,27.2,14.7,26.9,14.4L26.9,14.4z M48.9,11.4c0,0.4-0.4,0.8-0.8,0.9c-0.1-1.7-0.2-3.3-0.5-5V5.9
		c0-0.4,0.4-0.8,0.8-0.8c0,0,0,0,0,0c0.2,0,0.4,0.1,0.6,0.2c0.2,0.2,0.4,0.5,0.4,0.8L48.9,11.4z M25.9-7.6c2.3-2.3,6.2-3.6,10.5-3.6
		h0c4.3-0.1,8.2,1.2,10.5,3.6c3.4,3.4,3,7.6,2.1,10.8c-0.2,0-0.4-0.1-0.6-0.1c-0.5,0-1,0.1-1.4,0.4c-0.1-0.3-0.1-0.6-0.2-0.9
		C46.6,0.5,46.6-1,46.6-1c0-0.6-0.5-1-1-1c-0.2,0-0.4,0.1-0.6,0.2c-0.2,0.1-0.3,0.2-0.5,0.3C40,1.1,34.7,2,29.5,1.1
		C29,1,28.4,1.3,28.3,1.8c0,0.1,0,0.2,0,0.2c0,1.3-0.4,2.7-1,3.8c0-1.6-1.3-2.8-2.8-2.8c-0.2,0-0.4,0-0.6,0.1
		C23,0,22.6-4.2,25.9-7.6z M24,11.4l-0.6-5.1V6.2c0-0.3,0.1-0.6,0.4-0.8c0.2-0.1,0.4-0.2,0.6-0.2c0.4,0,0.8,0.4,0.8,0.8c0,0,0,0,0,0
		v1.4C25.1,8,25,8.7,25,9.4c-0.1,1-0.2,2-0.2,2.8C24.4,12.2,24,11.8,24,11.4z M27.2,17.1c-0.3-1.1-0.4,0.9-0.4-0.2
		C26.9,17,27,17,27.2,17.1c1.9,1.3,17.2,0.9,18.5,0c0.1-0.1,0.2-0.2,0.4-0.3V17c0,1-0.2-0.9-0.4,0.1c-0.4,1.6-1.3,3-2.6,4
		c-1.9,1.4-4.2,2.3-6.6,2.4c-2.4-0.1-4.7-0.9-6.6-2.4C28.6,20.1,27.7,18.7,27.2,17.1L27.2,17.1z"/>
	<path id="Path_40" class="st0" d="M33.4,9.2c0,0.6-0.5,1-1,1c-0.6,0-1-0.5-1-1c0-0.6,0.5-1,1-1S33.4,8.7,33.4,9.2
		C33.4,9.2,33.4,9.2,33.4,9.2z"/>
	<path id="Path_41" class="st0" d="M41.6,9.2c0,0.6-0.5,1-1,1c-0.6,0-1-0.5-1-1c0-0.6,0.5-1,1-1l0,0C41.1,8.2,41.6,8.7,41.6,9.2z"/>
	<path id="Path_42" class="st0" d="M42.9,7.8c0.4,0.4,1,0.4,1.4,0c0.4-0.4,0.4-1,0-1.4c0,0,0,0,0,0c-2.3-2.2-4.6-1.6-5.5-0.9
		c-0.4,0.4-0.5,1-0.1,1.4c0.3,0.4,1,0.5,1.4,0.2C40.1,7,41.3,6.2,42.9,7.8z"/>
</g>
</svg>
