<?xml version="1.0" encoding="utf-8"?>
<!-- Generator: Adobe Illustrator 16.0.0, SVG Export Plug-In . SVG Version: 6.00 Build 0)  -->
<!DOCTYPE svg PUBLIC "-//W3C//DTD SVG 1.1//EN" "http://www.w3.org/Graphics/SVG/1.1/DTD/svg11.dtd">
<svg version="1.1" id="Layer_1" xmlns="http://www.w3.org/2000/svg" xmlns:xlink="http://www.w3.org/1999/xlink" x="0px" y="0px"
	 width="141.277px" height="50px" viewBox="0 0 141.277 50" enable-background="new 0 0 141.277 50" xml:space="preserve">
<rect x="-135.149" y="-118.73" fill="none" width="407.165" height="287.897"/>
<rect x="-135.149" y="-118.73" fill="none" width="407.165" height="287.897"/>
<rect x="-135.149" y="-118.73" fill="none" width="407.165" height="287.897"/>
<rect x="-135.149" y="-118.73" fill="none" width="407.165" height="287.897"/>
<rect x="-135.149" y="-118.73" fill="none" width="407.165" height="287.897"/>
<g>
	<g>
		<defs>
			<rect id="SVGID_1_" x="-135.149" y="-118.73" width="407.165" height="287.897"/>
		</defs>
		<clipPath id="SVGID_2_">
			<use xlink:href="#SVGID_1_"  overflow="visible"/>
		</clipPath>
		<path clip-path="url(#SVGID_2_)" fill="#2456E2" d="M51.711,22.038h-3.126c-0.588,0-1.049-0.478-1.049-1.048
			c0-0.57,0.461-1.048,1.049-1.048h8.554c0.569,0,1.028,0.478,1.028,1.048c0,0.571-0.459,1.048-1.028,1.048h-3.146v9.75
			c0,0.625-0.514,1.123-1.141,1.123c-0.625,0-1.142-0.498-1.142-1.123L51.711,22.038L51.711,22.038z"/>
	</g>
	<g>
		<defs>
			<rect id="SVGID_3_" x="-135.149" y="-118.73" width="407.165" height="287.897"/>
		</defs>
		<clipPath id="SVGID_4_">
			<use xlink:href="#SVGID_3_"  overflow="visible"/>
		</clipPath>
		<path clip-path="url(#SVGID_4_)" fill="#2456E2" d="M61.719,33.036c-2.814,0-4.984-2.04-4.984-5.038v-0.036
			c0-2.778,1.969-5.059,4.745-5.059c3.091,0,4.618,2.538,4.618,4.783c0,0.625-0.479,1.065-1.05,1.065H58.96
			c0.239,1.582,1.361,2.464,2.795,2.464c0.938,0,1.675-0.331,2.301-0.845c0.166-0.129,0.313-0.202,0.569-0.202
			c0.497,0,0.882,0.387,0.882,0.898c0,0.276-0.129,0.518-0.295,0.683C64.331,32.54,63.227,33.036,61.719,33.036 M63.926,27.281
			c-0.146-1.436-0.991-2.558-2.464-2.558c-1.36,0-2.317,1.05-2.52,2.558H63.926z"/>
	</g>
	<g>
		<defs>
			<rect id="SVGID_5_" x="-135.149" y="-118.73" width="407.165" height="287.897"/>
		</defs>
		<clipPath id="SVGID_6_">
			<use xlink:href="#SVGID_5_"  overflow="visible"/>
		</clipPath>
		<path clip-path="url(#SVGID_6_)" fill="#2456E2" d="M67.771,20.401c0-0.607,0.479-1.104,1.104-1.104
			c0.624,0,1.121,0.497,1.121,1.104v11.404c0,0.625-0.497,1.104-1.121,1.104c-0.606,0-1.104-0.479-1.104-1.104V20.401z"/>
	</g>
	<g>
		<defs>
			<rect id="SVGID_7_" x="-135.149" y="-118.73" width="407.165" height="287.897"/>
		</defs>
		<clipPath id="SVGID_8_">
			<use xlink:href="#SVGID_7_"  overflow="visible"/>
		</clipPath>
		<path clip-path="url(#SVGID_8_)" fill="#2456E2" d="M76.62,33.036c-2.813,0-4.983-2.04-4.983-5.038v-0.036
			c0-2.778,1.968-5.059,4.743-5.059c3.091,0,4.618,2.538,4.618,4.783c0,0.625-0.479,1.065-1.049,1.065H73.86
			c0.239,1.582,1.362,2.464,2.797,2.464c0.938,0,1.672-0.331,2.298-0.845c0.165-0.129,0.313-0.202,0.57-0.202
			c0.496,0,0.884,0.387,0.884,0.898c0,0.276-0.129,0.518-0.295,0.683C79.232,32.54,78.129,33.036,76.62,33.036 M78.826,27.281
			c-0.146-1.436-0.992-2.558-2.465-2.558c-1.359,0-2.316,1.05-2.52,2.558H78.826z"/>
	</g>
	<g>
		<defs>
			<rect id="SVGID_9_" x="-135.149" y="-118.73" width="407.165" height="287.897"/>
		</defs>
		<clipPath id="SVGID_10_">
			<use xlink:href="#SVGID_9_"  overflow="visible"/>
		</clipPath>
		<path clip-path="url(#SVGID_10_)" fill="#2456E2" d="M82.801,21.082c0-0.644,0.496-1.141,1.141-1.141h3.66
			c4.047,0,6.844,2.776,6.844,6.401v0.037c0,3.623-2.797,6.438-6.844,6.438h-3.66c-0.645,0-1.141-0.496-1.141-1.14V21.082z
			 M87.601,30.757c2.705,0,4.471-1.819,4.471-4.34V26.38c0-2.521-1.766-4.379-4.471-4.379h-2.537v8.756H87.601z"/>
	</g>
	<g>
		<defs>
			<rect id="SVGID_11_" x="-135.149" y="-118.73" width="407.165" height="287.897"/>
		</defs>
		<clipPath id="SVGID_12_">
			<use xlink:href="#SVGID_11_"  overflow="visible"/>
		</clipPath>
		<path clip-path="url(#SVGID_12_)" fill="#2456E2" d="M100.645,33.036c-2.813,0-4.985-2.04-4.985-5.038v-0.036
			c0-2.778,1.969-5.059,4.747-5.059c3.089,0,4.616,2.538,4.616,4.783c0,0.625-0.479,1.065-1.05,1.065h-6.088
			c0.239,1.582,1.36,2.464,2.797,2.464c0.938,0,1.674-0.331,2.299-0.845c0.165-0.129,0.312-0.202,0.568-0.202
			c0.498,0,0.885,0.387,0.885,0.898c0,0.276-0.129,0.518-0.294,0.683C103.256,32.54,102.154,33.036,100.645,33.036 M102.852,27.281
			c-0.147-1.436-0.992-2.558-2.464-2.558c-1.361,0-2.319,1.05-2.521,2.558H102.852z"/>
	</g>
	<g>
		<defs>
			<rect id="SVGID_13_" x="-135.149" y="-118.73" width="407.165" height="287.897"/>
		</defs>
		<clipPath id="SVGID_14_">
			<use xlink:href="#SVGID_13_"  overflow="visible"/>
		</clipPath>
		<path clip-path="url(#SVGID_14_)" fill="#2456E2" d="M106.569,24.116c0-0.625,0.478-1.121,1.103-1.121
			c0.627,0,1.123,0.496,1.123,1.121v0.479c0.626-0.902,1.526-1.692,3.035-1.692c2.188,0,3.458,1.471,3.458,3.716v5.188
			c0,0.625-0.479,1.104-1.104,1.104c-0.624,0-1.121-0.479-1.121-1.104v-4.508c0-1.507-0.754-2.372-2.079-2.372
			c-1.286,0-2.188,0.899-2.188,2.408v4.472c0,0.625-0.496,1.104-1.123,1.104c-0.604,0-1.103-0.479-1.103-1.104L106.569,24.116
			L106.569,24.116z"/>
	</g>
	<g>
		<defs>
			<rect id="SVGID_15_" x="-135.149" y="-118.73" width="407.165" height="287.897"/>
		</defs>
		<clipPath id="SVGID_16_">
			<use xlink:href="#SVGID_15_"  overflow="visible"/>
		</clipPath>
		<path clip-path="url(#SVGID_16_)" fill="#2456E2" d="M117.699,30.132v-5.113h-0.37c-0.533,0-0.955-0.424-0.955-0.957
			c0-0.534,0.422-0.957,0.955-0.957h0.37V21.45c0-0.607,0.496-1.103,1.121-1.103c0.606,0,1.104,0.496,1.104,1.103v1.655h1.746
			c0.534,0,0.976,0.423,0.976,0.957c0,0.533-0.44,0.957-0.976,0.957h-1.746v4.765c0,0.862,0.44,1.213,1.195,1.213
			c0.257,0,0.479-0.058,0.551-0.058c0.497,0,0.938,0.406,0.938,0.922c0,0.404-0.275,0.734-0.589,0.863
			c-0.479,0.166-0.938,0.258-1.526,0.258C118.858,32.98,117.699,32.266,117.699,30.132"/>
	</g>
	<g>
		<defs>
			<rect id="SVGID_17_" x="-135.149" y="-118.73" width="407.165" height="287.897"/>
		</defs>
		<clipPath id="SVGID_18_">
			<use xlink:href="#SVGID_17_"  overflow="visible"/>
		</clipPath>
		<path clip-path="url(#SVGID_18_)" fill="#2456E2" d="M124.027,20.493c0-0.662,0.552-1.085,1.27-1.085s1.27,0.423,1.27,1.085v0.11
			c0,0.663-0.552,1.103-1.27,1.103s-1.27-0.44-1.27-1.103V20.493z M124.193,24.116c0-0.625,0.478-1.121,1.104-1.121
			c0.625,0,1.122,0.496,1.122,1.121v7.688c0,0.625-0.497,1.104-1.122,1.104c-0.605,0-1.104-0.479-1.104-1.104V24.116z"/>
	</g>
	<g>
		<defs>
			<rect id="SVGID_19_" x="-135.149" y="-118.73" width="407.165" height="287.897"/>
		</defs>
		<clipPath id="SVGID_20_">
			<use xlink:href="#SVGID_19_"  overflow="visible"/>
		</clipPath>
		<path clip-path="url(#SVGID_20_)" fill="#2456E2" d="M128.386,31.199l2.761-3.311l-2.56-3.037
			c-0.238-0.295-0.366-0.552-0.366-0.846c0-0.626,0.478-1.03,1.029-1.03c0.44,0,0.754,0.203,1.03,0.552l2.188,2.869l2.227-2.853
			c0.257-0.329,0.568-0.568,0.956-0.568c0.589,0,1.048,0.422,1.048,0.973c0,0.314-0.129,0.534-0.313,0.756l-2.63,3.145l2.723,3.219
			c0.239,0.295,0.369,0.552,0.369,0.848c0,0.625-0.479,1.029-1.031,1.029c-0.44,0-0.754-0.202-1.03-0.569l-2.354-3.033l-2.354,3.033
			c-0.257,0.313-0.569,0.569-0.975,0.569c-0.57,0-1.03-0.422-1.03-0.973C128.073,31.658,128.183,31.42,128.386,31.199"/>
	</g>
</g>
<path fill="#FFFFFF" d="M14.967,15.898c1.994,0,1.998-3.099,0-3.099C12.973,12.8,12.969,15.898,14.967,15.898"/>
<path fill="#2456E2" d="M19.623,0.875c-10.098,0-18.267,8.169-18.267,18.267c0,5.253,2.628,10.016,5.214,14.407
	c3.16,5.46,6.936,10.549,11.328,15.065c0.944,0.986,2.505,0.986,3.49,0c3.858-3.816,7.266-8.128,10.139-12.725
	c3.079-4.967,6.404-10.714,6.404-16.748C37.887,9.084,29.721,0.875,19.623,0.875"/>
<path fill="#FFFFFF" d="M29.254,10.256c-1.208-0.533-2.644-0.359-4.154,0.502c-3.263,1.853-7.16,1.853-10.422,0
	c-1.512-0.862-2.949-1.035-4.155-0.502c-3.645,1.568-4.27,9.111-1.393,16.813c0.943,2.533,2.039,4.999,3.169,7.128
	c0.304,0.581,0.848,0.918,1.458,0.918c0.077,0,0.156-0.008,0.236-0.017c0.716-0.102,1.28-0.649,1.434-1.398
	c0.786-3.585,2.537-5.905,4.46-5.905c1.875,0,3.604,2.215,4.406,5.641c0.169,0.729,0.71,1.246,1.41,1.347
	c0.676,0.099,1.319-0.225,1.671-0.84c1.256-2.155,2.387-4.538,3.271-6.892C33.568,19.227,32.957,11.851,29.254,10.256"/>
<path fill="#2456E2" d="M25.896,18.297c-1.625-1.355-3.712-2.175-5.989-2.175c-2.276,0-4.364,0.819-5.988,2.175
	c-0.392,0.327-0.416,0.922-0.055,1.283c0.317,0.317,0.824,0.345,1.167,0.058c1.323-1.105,3.021-1.773,4.875-1.773
	c1.854,0,3.554,0.667,4.875,1.773c0.343,0.287,0.851,0.259,1.167-0.058C26.311,19.219,26.287,18.624,25.896,18.297"/>
<path fill="#2456E2" d="M23.538,20.566c-1.016-0.753-2.272-1.2-3.631-1.2c-1.359,0-2.614,0.447-3.63,1.2
	c-0.431,0.319-0.483,0.943-0.104,1.322c0.309,0.31,0.794,0.334,1.146,0.074c0.726-0.535,1.619-0.852,2.588-0.852
	c0.968,0,1.863,0.317,2.587,0.852c0.353,0.26,0.838,0.235,1.148-0.074C24.021,21.509,23.968,20.886,23.538,20.566"/>
<path fill="#2456E2" d="M19.907,22.515c-1.014,0-1.833,0.821-1.833,1.833c0,1.013,0.819,1.833,1.833,1.833
	c1.012,0,1.833-0.821,1.833-1.833C21.74,23.336,20.919,22.515,19.907,22.515"/>
</svg>
