<svg xmlns="http://www.w3.org/2000/svg" xmlns:xlink="http://www.w3.org/1999/xlink" width="1366" height="809" viewBox="0 0 1366 809">
  <defs>
    <clipPath id="clip-path">
      <rect id="Rectangle_59" data-name="Rectangle 59" width="1366" height="809" transform="translate(0 2258)" fill="#3578e5"/>
    </clipPath>
  </defs>
  <g id="Mask_Group_120" data-name="Mask Group 120" transform="translate(0 -2258)" clip-path="url(#clip-path)">
    <g id="dentist_1_" data-name="dentist (1)" transform="translate(330.213 2284.028)">
      <path id="Path_39" data-name="Path 39" d="M240.236,479.534a20.232,20.232,0,0,0-15.382,13.955l-3.489,11.418c-61.846,21.673-138.11,52.186-164.739,78.854C22.36,618,6.608,720.907.291,779.172a26.959,26.959,0,0,0,26.76,29.8H698.468a26.972,26.972,0,0,0,26.813-29.826c-6.343-58.292-22.069-161.224-56.336-195.424-26.694-26.668-102.892-57.181-164.725-78.907L500.731,493.4a19.73,19.73,0,0,0-23.377-13.691c-1.322-3.965-2.432-7.7-3.423-11.008A131.371,131.371,0,0,0,510.55,408.16a199.7,199.7,0,0,0,6.436-44.389A40.24,40.24,0,0,0,554.12,328.09l7.361-67.04a35.036,35.036,0,0,0,.278-4.823,40.2,40.2,0,0,0-8.537-24.712c10.4-34.571,29.417-114.469-32.628-176.513C471.975,6.3,401.328-.264,363.123,0h-.185c-38.4-.529-109.209,6.052-158.012,54.961C142.907,116.98,161.884,196.9,172.285,231.448a40.266,40.266,0,0,0-8.524,24.739,34.544,34.544,0,0,0,.211,4.453l7.414,67.4a40.253,40.253,0,0,0,37.134,35.681,199.162,199.162,0,0,0,6.449,44.4,131.384,131.384,0,0,0,36.592,60.512c-.978,3.3-2.154,7.057-3.423,10.995A19.69,19.69,0,0,0,240.236,479.534Zm122.53,32.826a185.474,185.474,0,0,0,88.541-25.822c1.322,4.044,2.643,8.18,4.216,12.449L435.3,523.593a174.438,174.438,0,0,1-144.863,0l-20.219-24.62c1.52-4.242,2.934-8.444,4.216-12.435A185.328,185.328,0,0,0,362.766,512.36Zm-91.316,30.7.383.489,50.481,61.291v79.938l-75.7-170.315.344-1.136ZM380.884,589.55a20.219,20.219,0,0,0-4.638,12.858V782H349.274V602.408a20.206,20.206,0,0,0-4.625-12.845L322.1,562.247a203.064,203.064,0,0,0,81.3,0Zm22.32,15.29,50.482-61.291.4-.489,24.487-29.668.33,1.136L403.2,684.777ZM187.5,660.66a26.959,26.959,0,1,1-26.959,26.959A26.959,26.959,0,0,1,187.5,660.66ZM27.051,782c7.691-70.859,24.487-155.171,48.539-179.3A204.912,204.912,0,0,1,127.6,571.181,133.207,133.207,0,0,0,149.039,649.7a53.931,53.931,0,1,0,38.456-16,53.057,53.057,0,0,0-15.131,2.432,105.614,105.614,0,0,1-16.056-77.585c20.021-8.418,43.147-17.285,68.718-26.364l85.528,192.57a19.994,19.994,0,0,0,11.722,10.783V782Zm671.417,0H403.2V735.483A20.034,20.034,0,0,0,414.952,724.7l85.594-192.53q16.519,5.854,31.61,11.576a270.692,270.692,0,0,1,11.18,50.336,40.517,40.517,0,0,0-32.258,39.645,39.644,39.644,0,0,0,1.507,10.347c-47.35,28.756-70.767,55.715-68.824,80.228,1.467,18.5,16.188,33.038,43.7,43.385a13.479,13.479,0,1,0,9.449-25.241c-16.413-6.158-25.743-13.36-26.3-20.219-.78-9.779,13.955-29.972,57.076-55.9a40.121,40.121,0,0,0,23.787,7.85h13.479a40.134,40.134,0,0,0,23.787-7.929c43.134,25.928,57.869,46.134,57.076,55.9-.555,6.911-9.885,14.114-26.3,20.219a13.479,13.479,0,1,0,9.435,25.241c27.527-10.334,42.288-24.924,43.7-43.385,1.943-24.5-21.422-51.539-68.824-80.229a39.5,39.5,0,0,0,1.546-10.295,40.438,40.438,0,0,0-35.046-39.909,259.015,259.015,0,0,0-6.607-37.544c43.61,18.039,73.859,34.253,86.136,46.543C673.967,626.869,690.724,711.181,698.468,782ZM565,647.207H551.517a13.486,13.486,0,0,1,0-26.972H565a13.486,13.486,0,0,1,0,26.972ZM235.941,364.339c.357-5.8.846-51.539,1.454-58.054a225.982,225.982,0,0,0,21.144-28.9c.066.079.092.185.159.264a13.479,13.479,0,0,0,19.056.41c20.959-20.074,35.337-11.1,37-9.885a13.495,13.495,0,0,0,16.453-21.4,51,51,0,0,0-57.974.766,135.465,135.465,0,0,0,7.559-29.192A316.725,316.725,0,0,0,471.42,184.76c.436,7.77,1.1,17.285,2.1,28.161a15.858,15.858,0,0,0,.383,1.85,1.612,1.612,0,0,0,.106.714c4.625,22.928,7.929,41.416,10.242,58.45,2.643,18.091,4.427,74.7,5.392,90.431-4.863,4.017-248.866,4.031-253.768-.053ZM527.28,325.09A13.215,13.215,0,0,1,517.1,336.455,564.462,564.462,0,0,0,511.026,271V253.095a10.374,10.374,0,0,1,10.387-10.387,12.871,12.871,0,0,1,8.088,2.815,13.876,13.876,0,0,1,5.286,10.665ZM223.982,74c30.606-30.593,81.6-47.706,138.758-47.046h.423c57.168-.661,107.861,16.466,138.348,47.006,44.5,44.5,39.236,100.157,27.752,142.577a39.525,39.525,0,0,0-7.929-.846,37,37,0,0,0-18.884,5.286c-.753-3.846-1.48-7.652-2.313-11.748-2.643-28.6-2.643-47.283-2.643-47.468a13.479,13.479,0,0,0-20.972-11.22c-2.114,1.414-4.374,2.643-6.74,4.044a290.282,290.282,0,0,1-198.226,34.544,13.479,13.479,0,0,0-16.77,13.083,111.006,111.006,0,0,1-13.479,50.666A37.372,37.372,0,0,0,203.961,215.7a40,40,0,0,0-7.929.859C184.8,174.2,179.407,118.579,223.982,74ZM198.226,325.09l-7.414-67.4V256.2a13.8,13.8,0,0,1,5.141-10.572,12.924,12.924,0,0,1,8.14-2.868,10.374,10.374,0,0,1,10.387,10.387V271.08q-2.154,14.246-3.568,28.32c-1.322,13.651-2.207,25.888-2.564,37.161a13.294,13.294,0,0,1-10.123-11.471Zm42.724,75.749c-3.542-13.982-5.418,11.312-5.59-3.106,1.546,1.11,3,2.18,4.678,3.33,26.245,17.18,228.356,11.59,245.509,0,1.665-1.123,3.132-2.207,4.678-3.317v1.44c-.159,12.964-2.035-12.343-5.577,1.639a104.584,104.584,0,0,1-34.465,53.428A154.444,154.444,0,0,1,362.819,485.4,153.295,153.295,0,0,1,275.4,454.227a104.518,104.518,0,0,1-34.478-53.375Zm0,0" fill="#3578e5"/>
      <path id="Path_40" data-name="Path 40" d="M2496.322,2381.866a13.479,13.479,0,1,1-13.479-13.479A13.48,13.48,0,0,1,2496.322,2381.866Zm0,0" transform="translate(-2173.954 -2085.228)" fill="#3578e5"/>
      <path id="Path_41" data-name="Path 41" d="M3398.394,2381.866a13.479,13.479,0,1,1-13.479-13.479A13.479,13.479,0,0,1,3398.394,2381.866Zm0,0" transform="translate(-2968.231 -2085.228)" fill="#3578e5"/>
      <path id="Path_42" data-name="Path 42" d="M3317.32,2031.245a13.479,13.479,0,1,0,18.634-19.48c-31-29.667-60.79-20.694-72.142-11.774a13.493,13.493,0,0,0,16.638,21.237C3280.569,2021.109,3295.211,2010.074,3317.32,2031.245Zm0,0" transform="translate(-2868.92 -1753.306)" fill="#3578e5"/>
    </g>
  </g>
</svg>
