<svg xmlns="http://www.w3.org/2000/svg" width="29.865" height="28" viewBox="0 0 29.865 28">
  <g id="outlook" transform="translate(0 -15.99)">
    <path id="Path_136" data-name="Path 136" d="M270,112.011H256.933a.933.933,0,0,0,0,1.867H267.28l-5.734,4.459-4.112-2.615-1,1.575,4.666,2.968a.934.934,0,0,0,1.073-.05l6.893-5.363v12.092H256.933a.933.933,0,1,0,0,1.867H270a.934.934,0,0,0,.933-.933V112.944A.934.934,0,0,0,270,112.011Z" transform="translate(-241.067 -90.421)" fill="#1976d2"/>
    <path id="Path_137" data-name="Path 137" d="M16.461,16.205a.917.917,0,0,0-.767-.2L.762,18.807A.931.931,0,0,0,0,19.724V40.256a.932.932,0,0,0,.762.916l14.933,2.8a.878.878,0,0,0,.172.017.933.933,0,0,0,.933-.933V16.924A.931.931,0,0,0,16.461,16.205Z" fill="#2196f3"/>
    <path id="Path_138" data-name="Path 138" d="M68.666,187.21c-2.572,0-4.666-2.512-4.666-5.6s2.094-5.6,4.666-5.6,4.666,2.512,4.666,5.6S71.239,187.21,68.666,187.21Zm0-9.333c-1.544,0-2.8,1.674-2.8,3.733s1.256,3.733,2.8,3.733,2.8-1.674,2.8-3.733S70.21,177.878,68.666,177.878Z" transform="translate(-60.267 -150.687)" fill="#fafafa"/>
  </g>
</svg>
