<svg id="round-add-button" xmlns="http://www.w3.org/2000/svg" width="66.548" height="66.548" viewBox="0 0 66.548 66.548">
  <g id="Group_27" data-name="Group 27">
    <path id="Path_34" data-name="Path 34" d="M33.273,0A33.274,33.274,0,1,0,66.548,33.274,33.311,33.311,0,0,0,33.273,0Zm0,62.184a28.91,28.91,0,1,1,28.91-28.91A28.943,28.943,0,0,1,33.273,62.184Z" fill="#2858a7"/>
    <path id="Path_35" data-name="Path 35" d="M136.036,120.628H125V109.587a2.182,2.182,0,1,0-4.364,0v11.042h-11.04a2.182,2.182,0,0,0,0,4.364h11.04v11.041a2.182,2.182,0,0,0,4.364,0V124.992h11.041a2.182,2.182,0,0,0,0-4.364Z" transform="translate(-89.539 -89.536)" fill="#2858a7"/>
  </g>
</svg>
