<svg xmlns="http://www.w3.org/2000/svg" width="12.837" height="12.837" viewBox="0 0 12.837 12.837">
  <g id="Group_22" data-name="Group 22" transform="translate(-287 15)">
    <g id="Group_21" data-name="Group 21" transform="translate(287 -15)">
      <path id="Path_33" data-name="Path 33" d="M293.418-15A6.426,6.426,0,0,0,287-8.582a6.426,6.426,0,0,0,6.418,6.418,6.426,6.426,0,0,0,6.418-6.418A6.426,6.426,0,0,0,293.418-15Zm3.666,4.579L292.459-5.8a.533.533,0,0,1-.378.157A.533.533,0,0,1,291.7-5.8l-2.485-2.485a.267.267,0,0,1,0-.378l.378-.378a.268.268,0,0,1,.378,0l2.107,2.107,4.246-4.247a.268.268,0,0,1,.378,0l.378.378A.267.267,0,0,1,297.084-10.421Z" transform="translate(-287 15)" fill="#3578e5"/>
    </g>
  </g>
</svg>
