<svg xmlns="http://www.w3.org/2000/svg" width="18.397" height="18.387" viewBox="0 0 18.397 18.387">
  <g id="Group_291" data-name="Group 291" transform="translate(0.15 0.15)">
    <path id="Path_109" data-name="Path 109" d="M17.375,5.689A8.866,8.866,0,0,0,12.556.89,8.894,8.894,0,0,0,9.034.168,8.8,8.8,0,0,0,5.521.89a8.894,8.894,0,0,0-4.809,4.8,9.04,9.04,0,0,0,0,7.035,8.913,8.913,0,0,0,4.809,4.809,8.8,8.8,0,0,0,3.512.722,8.9,8.9,0,0,0,3.522-.722,8.885,8.885,0,0,0,4.819-4.809,8.926,8.926,0,0,0,0-7.035ZM15.93,13.2a7.939,7.939,0,0,1-2.909,2.9,7.793,7.793,0,0,1-3.987,1.069,7.662,7.662,0,0,1-3.087-.633,8.09,8.09,0,0,1-2.533-1.692A8.042,8.042,0,0,1,1.722,12.3,7.79,7.79,0,0,1,1.1,9.2,7.779,7.779,0,0,1,2.157,5.224a7.942,7.942,0,0,1,2.9-2.9A7.733,7.733,0,0,1,9.034,1.256a7.793,7.793,0,0,1,3.987,1.069,7.963,7.963,0,0,1,2.909,2.9A7.734,7.734,0,0,1,17,9.2,7.808,7.808,0,0,1,15.93,13.2Z" transform="translate(0 -0.168)" stroke="#000" stroke-width="0.3"/>
    <path id="Path_110" data-name="Path 110" d="M288.211,116.6v-5.125a.57.57,0,0,0-.574-.554.558.558,0,0,0-.544.554v5.2a.452.452,0,0,1,.02.079.517.517,0,0,0,.148.445l2.959,2.958a.563.563,0,0,0,.762,0,.534.534,0,0,0,0-.772Z" transform="translate(-278.604 -107.646)" stroke="#000" stroke-width="0.3"/>
  </g>
</svg>
