<?xml version="1.0" encoding="utf-8"?>
<!-- Generator: Adobe Illustrator 19.0.0, SVG Export Plug-In . SVG Version: 6.00 Build 0)  -->
<svg version="1.1" id="Layer_1" xmlns="http://www.w3.org/2000/svg" xmlns:xlink="http://www.w3.org/1999/xlink" x="0px" y="0px"
	 viewBox="0 0 35 35" style="enable-background:new 0 0 35 35;" xml:space="preserve">
<style type="text/css">
	.st0{fill:#1582C5;}
</style>
<path id="XMLID_1_" class="st0" d="M31.3,10.4c0,0.3,0,0.6,0,0.9c0,9.4-7.1,20.2-20.2,20.2c-3.9,0-7.7-1.1-10.9-3.2
	c0.6,0.1,1.1,0.1,1.7,0.1c3.2,0,6.3-1.1,8.8-3c-3-0.1-5.7-2-6.6-4.9c0.4,0.1,0.9,0.1,1.3,0.1c0.6,0,1.3-0.1,1.9-0.2
	c-3.3-0.7-5.7-3.6-5.7-7v-0.1c1,0.5,2.1,0.9,3.2,0.9C1.7,12.1,0.7,8,2.6,4.7c3.6,4.4,8.9,7.1,14.6,7.4c-0.1-0.5-0.2-1.1-0.2-1.6
	c0-3.9,3.2-7.1,7.1-7.1c2,0,3.8,0.8,5.2,2.2c1.6-0.3,3.1-0.9,4.5-1.7c-0.5,1.6-1.6,3-3.1,3.9c1.4-0.2,2.8-0.5,4.1-1.1
	C33.9,8.2,32.6,9.4,31.3,10.4z"/>
</svg>
