<svg id="Twitter_Social_Icon_Circle_Color" xmlns="http://www.w3.org/2000/svg" width="31.887" height="31.887" viewBox="0 0 31.887 31.887">
  <g id="Group_12818" data-name="Group 12818">
    <g id="Dark_Blue">
      <circle id="Ellipse_17" data-name="Ellipse 17" cx="15.943" cy="15.943" r="15.943" fill="#1da1f2"/>
    </g>
    <g id="Logo__x2014__FIXED" transform="translate(7.151 9.128)">
      <path id="Path_146" data-name="Path 146" d="M95.575,129.726a10.863,10.863,0,0,0,10.937-10.937c0-.167,0-.335-.008-.494a7.875,7.875,0,0,0,1.921-1.993,7.8,7.8,0,0,1-2.208.606,3.842,3.842,0,0,0,1.69-2.128,7.784,7.784,0,0,1-2.439.933,3.846,3.846,0,0,0-6.648,2.631,3.523,3.523,0,0,0,.1.877A10.9,10.9,0,0,1,91,115.2a3.842,3.842,0,0,0,1.2,5.126,3.776,3.776,0,0,1-1.738-.478v.048a3.848,3.848,0,0,0,3.085,3.771,3.832,3.832,0,0,1-1.012.136,3.669,3.669,0,0,1-.725-.072,3.838,3.838,0,0,0,3.587,2.671,7.727,7.727,0,0,1-4.775,1.642,6.99,6.99,0,0,1-.917-.056,10.71,10.71,0,0,0,5.875,1.738" transform="translate(-89.7 -114.5)" fill="#fff"/>
    </g>
  </g>
</svg>
