<?xml version="1.0" encoding="utf-8"?>
<!-- Generator: Adobe Illustrator 19.0.0, SVG Export Plug-In . SVG Version: 6.00 Build 0)  -->
<svg version="1.1" id="Layer_1" xmlns="http://www.w3.org/2000/svg" xmlns:xlink="http://www.w3.org/1999/xlink" x="0px" y="0px"
	 viewBox="-523 293 53 53" style="enable-background:new -523 293 53 53;" xml:space="preserve">
<style type="text/css">
	.st0{fill:#FFFFFF;}
</style>
<path class="st0" d="M-496.5,293c-14.6,0-26.5,11.9-26.5,26.5s11.9,26.5,26.5,26.5s26.5-11.9,26.5-26.5
	C-470,304.9-481.9,293-496.5,293z M-496.5,342.5c-12.7,0-23-10.3-23-23c0-12.7,10.3-23,23-23c12.7,0,23,10.3,23,23c0,0,0,0,0,0
	C-473.5,332.2-483.8,342.5-496.5,342.5z"/>
<path class="st0" d="M-486,317.8h-8.8V309c0-1-0.8-1.7-1.8-1.7c-0.9,0-1.7,0.8-1.7,1.7v8.8h-8.8c-1,0-1.8,0.7-1.8,1.7
	s0.7,1.8,1.7,1.8c0,0,0.1,0,0.1,0h8.8v8.8c0,1,0.8,1.7,1.8,1.7c0.9,0,1.7-0.8,1.7-1.7v-8.8h8.8c1,0,1.7-0.8,1.7-1.7
	C-484.2,318.5-485,317.8-486,317.8L-486,317.8z"/>
</svg>
