<?xml version="1.0" encoding="utf-8"?>
<!-- Generator: Adobe Illustrator 19.0.0, SVG Export Plug-In . SVG Version: 6.00 Build 0)  -->
<svg version="1.1" id="Layer_1" xmlns="http://www.w3.org/2000/svg" xmlns:xlink="http://www.w3.org/1999/xlink" x="0px" y="0px"
	 viewBox="0 0 35 35" style="enable-background:new 0 0 35 35;" xml:space="preserve">
<style type="text/css">
	.st0{fill:#1582C5;}
</style>
<g transform="translate(1147.358 4084.557)">
	<g transform="translate(44.245)">
		<path class="st0" d="M-1160.1-4066.5c-0.3-1.5-1.6-2.7-3.1-2.9c-2.4-0.3-6-0.4-10.8-0.4s-8.4,0.1-10.8,0.4c-0.8,0.1-1.5,0.4-2,0.9
			c-0.6,0.5-1,1.2-1.1,1.9c-0.4,2.3-0.6,4.5-0.5,6.8c-0.1,2.3,0.1,4.6,0.5,6.8c0.2,0.7,0.6,1.4,1.1,1.9c0.6,0.5,1.3,0.8,2,0.9
			c3.6,0.3,7.2,0.5,10.8,0.4c3.6,0.1,7.2-0.1,10.8-0.4c0.7-0.1,1.4-0.4,2-0.9c0.6-0.5,1-1.2,1.1-1.9c0.4-2.3,0.6-4.5,0.5-6.8
			C-1159.6-4061.9-1159.7-4064.2-1160.1-4066.5z M-1180.3-4064.5h-2.1v11.1h-2v-11.1h-2.1v-1.8h6.1L-1180.3-4064.5L-1180.3-4064.5z
			 M-1175-4053.4h-1.7v-1.1c-0.5,0.7-1.2,1.1-2,1.2c-0.5,0.1-1-0.2-1.1-0.7c-0.1-0.5-0.2-0.9-0.2-1.4v-7.6h1.7v7.1
			c0,0.2,0,0.5,0,0.7c0,0.3,0.2,0.4,0.4,0.4c0.4,0,0.7-0.3,1.1-0.8v-7.4h1.7L-1175-4053.4L-1175-4053.4z M-1168.4-4056.3
			c0,0.7,0,1.3-0.2,2c-0.1,0.7-0.7,1.1-1.4,1.1c-0.7-0.1-1.4-0.5-1.8-1.1v0.9h-1.7v-13h1.7v4.2c0.4-0.6,1.1-1,1.8-1.1
			c0.7,0,1.3,0.4,1.4,1.1c0.1,0.6,0.2,1.3,0.2,1.9L-1168.4-4056.3z M-1161.8-4057.9h-3.5v1.7c0,0.9,0.3,1.3,0.9,1.3
			c0.4,0,0.8-0.3,0.8-0.7c0-0.4,0.1-0.8,0-1.2h1.8v0.3c0,0.4,0,0.8,0,1.1c-0.2,1.2-1.3,2.2-2.5,2.1c-0.8,0-1.6-0.3-2.1-1
			c-0.4-0.7-0.6-1.5-0.6-2.3v-3.4c-0.1-0.8,0.1-1.6,0.5-2.3c0.9-1.1,2.6-1.3,3.8-0.4c0.1,0.1,0.3,0.3,0.4,0.4
			c0.4,0.7,0.6,1.5,0.5,2.3L-1161.8-4057.9L-1161.8-4057.9z"/>
		<path id="XMLID_6_" class="st0" d="M-1170.9-4061.6c-0.3,0-0.7,0.2-0.9,0.4v5.9c0.2,0.3,0.5,0.4,0.9,0.4c0.5,0,0.8-0.4,0.8-1.3
			v-4.1C-1170.1-4061.1-1170.4-4061.6-1170.9-4061.6z"/>
		<path id="XMLID_5_" class="st0" d="M-1164.4-4061.6c-0.6,0-0.9,0.4-0.9,1.3v0.9h1.8v-0.9
			C-1163.5-4061.1-1163.8-4061.6-1164.4-4061.6z"/>
		<path id="XMLID_4_" class="st0" d="M-1181.5-4076.8v5.3h2v-5.3l2.4-7.8h-2l-1.3,5.1l-1.4-5.1h-2.1c0.4,1.1,0.8,2.3,1.3,3.7
			C-1182.2-4079.6-1181.8-4078.2-1181.5-4076.8z"/>
		<path class="st0" d="M-1174.5-4071.3c0.8,0,1.6-0.3,2.1-1c0.4-0.7,0.6-1.5,0.5-2.3v-3.4c0.1-0.8-0.1-1.6-0.5-2.3
			c-0.9-1.1-2.6-1.3-3.7-0.4c-0.2,0.1-0.3,0.3-0.4,0.4c-0.4,0.7-0.6,1.5-0.5,2.3v3.4c-0.1,0.8,0.1,1.6,0.5,2.3
			C-1176.1-4071.7-1175.3-4071.3-1174.5-4071.3z M-1175.4-4078.4c0-0.9,0.3-1.3,0.8-1.3c0.6,0,0.8,0.4,0.8,1.3v4.1
			c0,0.9-0.3,1.4-0.8,1.4c-0.6,0-0.8-0.5-0.8-1.4V-4078.4z"/>
		<path id="XMLID_1_" class="st0" d="M-1169.1-4071.3c0.8-0.1,1.6-0.5,2-1.2v1.1h1.8v-9.8h-1.8v7.4c-0.4,0.6-0.8,0.8-1.1,0.8
			c-0.2,0-0.4-0.1-0.4-0.4c0-0.2,0-0.5,0-0.7v-7.2h-1.8v7.7c0,0.5,0,1,0.2,1.5C-1170.1-4071.6-1169.6-4071.3-1169.1-4071.3z"/>
	</g>
</g>
</svg>
