<svg xmlns="http://www.w3.org/2000/svg" width="28.96" height="35.016" viewBox="0 0 28.96 35.016">
  <g id="youtube-logo" transform="translate(-44.245)">
    <g id="Group_16" data-name="Group 16" transform="translate(44.245)">
      <path id="Path_27" data-name="Path 27" d="M72.7,220.229a3.669,3.669,0,0,0-3.127-2.853q-3.6-.391-10.845-.391t-10.826.391a3.546,3.546,0,0,0-2.013.918,3.711,3.711,0,0,0-1.134,1.934,33.865,33.865,0,0,0-.508,6.839,33.167,33.167,0,0,0,.508,6.839,3.572,3.572,0,0,0,1.124,1.934,3.464,3.464,0,0,0,2,.9,104.493,104.493,0,0,0,10.845.41,104.473,104.473,0,0,0,10.845-.41,3.419,3.419,0,0,0,1.993-.9,3.708,3.708,0,0,0,1.133-1.934,33.862,33.862,0,0,0,.508-6.839A33.185,33.185,0,0,0,72.7,220.229ZM52.511,222.2H50.421v11.118H48.467V222.2H46.415v-1.837h6.1V222.2Zm5.276,11.118H56.048v-1.055a2.86,2.86,0,0,1-1.993,1.192,1.052,1.052,0,0,1-1.133-.723,4.836,4.836,0,0,1-.156-1.427v-7.64H54.5v7.113a5.4,5.4,0,0,0,.02.684q.059.41.41.41.527,0,1.114-.821v-7.386h1.739v9.653Zm6.644-2.892a7.219,7.219,0,0,1-.175,1.955,1.353,1.353,0,0,1-1.388,1.074,2.426,2.426,0,0,1-1.818-1.074v.938H59.312V220.367h1.739v4.24a2.355,2.355,0,0,1,1.818-1.055,1.358,1.358,0,0,1,1.388,1.094,6.981,6.981,0,0,1,.175,1.934Zm6.6-1.6h-3.5v1.7q0,1.348.9,1.348a.748.748,0,0,0,.782-.7,9.74,9.74,0,0,0,.039-1.192h1.778v.254A8.651,8.651,0,0,1,71,231.368a2.419,2.419,0,0,1-2.521,2.091,2.509,2.509,0,0,1-2.11-1A3.672,3.672,0,0,1,65.8,230.2v-3.381a3.772,3.772,0,0,1,.547-2.267,2.672,2.672,0,0,1,4.163,0,3.875,3.875,0,0,1,.528,2.267v2.013Z" transform="translate(-44.245 -202.135)" fill="#3578e5"/>
      <path id="Path_28" data-name="Path 28" d="M290.666,336.043a1.256,1.256,0,0,0-.879.43v5.881a1.254,1.254,0,0,0,.879.43q.762,0,.762-1.309v-4.123Q291.429,336.043,290.666,336.043Z" transform="translate(-272.982 -313.044)" fill="#3578e5"/>
      <path id="Path_29" data-name="Path 29" d="M385.46,336.043q-.879,0-.879,1.328v.9h1.758v-.9Q386.339,336.043,385.46,336.043Z" transform="translate(-361.288 -313.044)" fill="#3578e5"/>
      <path id="Path_30" data-name="Path 30" d="M114.959,7.8v5.3h1.954V7.8L119.277,0h-1.993l-1.328,5.139L114.568,0H112.5q.547,1.642,1.27,3.654A33.123,33.123,0,0,1,114.959,7.8Z" transform="translate(-107.826)" fill="#3578e5"/>
      <path id="Path_31" data-name="Path 31" d="M214.447,57.113a2.4,2.4,0,0,0,2.071-1,3.85,3.85,0,0,0,.547-2.306v-3.42a3.813,3.813,0,0,0-.547-2.286,2.631,2.631,0,0,0-4.123,0,3.812,3.812,0,0,0-.547,2.286v3.42a3.905,3.905,0,0,0,.547,2.306A2.416,2.416,0,0,0,214.447,57.113Zm-.84-7.074q0-1.348.84-1.348t.84,1.348v4.1q0,1.368-.84,1.368t-.84-1.368Z" transform="translate(-200.377 -43.884)" fill="#3578e5"/>
      <path id="Path_32" data-name="Path 32" d="M310.507,58.71A2.812,2.812,0,0,0,312.52,57.5v1.075H314.3V48.822H312.52v7.445q-.586.84-1.114.84-.352,0-.41-.43a5.1,5.1,0,0,1-.02-.684V48.822H309.2v7.7a5.021,5.021,0,0,0,.156,1.465A1.086,1.086,0,0,0,310.507,58.71Z" transform="translate(-291.064 -45.481)" fill="#3578e5"/>
    </g>
  </g>
</svg>
